<svg width="1280" height="320" viewBox="0 0 1280 320" fill="none" xmlns="http://www.w3.org/2000/svg">
  <defs>
    <linearGradient id="bg" x1="0" y1="0" x2="1280" y2="320" gradientUnits="userSpaceOnUse">
      <stop offset="0" stop-color="#0B0F17"/>
      <stop offset="1" stop-color="#161B29"/>
    </linearGradient>
    <linearGradient id="brand" x1="80" y1="80" x2="200" y2="240" gradientUnits="userSpaceOnUse">
      <stop offset="0" stop-color="#7C5CFF"/>
      <stop offset="0.55" stop-color="#4F8BFF"/>
      <stop offset="1" stop-color="#38BDF8"/>
    </linearGradient>
    <linearGradient id="title" x1="280" y1="80" x2="280" y2="180" gradientUnits="userSpaceOnUse">
      <stop offset="0" stop-color="#FFFFFF"/>
      <stop offset="1" stop-color="#B6BDD0"/>
    </linearGradient>
    <radialGradient id="halo" cx="0" cy="0" r="1" gradientTransform="translate(960 80) scale(420 320)" gradientUnits="userSpaceOnUse">
      <stop offset="0" stop-color="#7C5CFF" stop-opacity="0.35"/>
      <stop offset="1" stop-color="#7C5CFF" stop-opacity="0"/>
    </radialGradient>
    <pattern id="grid" width="36" height="36" patternUnits="userSpaceOnUse">
      <path d="M 36 0 L 0 0 0 36" fill="none" stroke="#FFFFFF" stroke-opacity="0.04" stroke-width="1"/>
    </pattern>
  </defs>
  <rect width="1280" height="320" fill="url(#bg)"/>
  <rect width="1280" height="320" fill="url(#grid)"/>
  <rect width="1280" height="320" fill="url(#halo)"/>
  <g transform="translate(80 80)">
    <rect width="160" height="160" rx="38" fill="url(#brand)"/>
    <path d="M40 92L72 124L120 56" stroke="white" stroke-width="14" stroke-linecap="round" stroke-linejoin="round"/>
    <circle cx="128" cy="44" r="11" fill="white" fill-opacity="0.95"/>
  </g>
  <text x="280" y="148" font-family="Inter, Segoe UI, Arial" font-size="56" font-weight="700" fill="url(#title)" letter-spacing="-1.5">Azure DevOps Code Review AI</text>
  <text x="280" y="190" font-family="Inter, Segoe UI, Arial" font-size="20" font-weight="500" fill="#8990A3" letter-spacing="0.5">Context-aware reviewer · cloud + local LLMs · diff-style findings</text>
  <g transform="translate(280 220)" font-family="Inter, Segoe UI, Arial" font-size="13" font-weight="600" fill="#C5CAD6">
    <rect x="0" y="0" width="120" height="32" rx="16" fill="#161B29" stroke="#FFFFFF" stroke-opacity="0.10"/>
    <text x="60" y="20" text-anchor="middle">Local-first</text>
    <rect x="132" y="0" width="138" height="32" rx="16" fill="#161B29" stroke="#FFFFFF" stroke-opacity="0.10"/>
    <text x="201" y="20" text-anchor="middle">Multi-model</text>
    <rect x="282" y="0" width="174" height="32" rx="16" fill="#161B29" stroke="#FFFFFF" stroke-opacity="0.10"/>
    <text x="369" y="20" text-anchor="middle">Diff-style findings</text>
    <rect x="468" y="0" width="106" height="32" rx="16" fill="#161B29" stroke="#FFFFFF" stroke-opacity="0.10"/>
    <text x="521" y="20" text-anchor="middle">Next.js 16</text>
  </g>
</svg>
